# xmcd CD database file
#
# Track frame offsets:
#	150
#	16621
#	46973
#	70630
#	91040
#	110736
#	140033
#	170902
#	201777
#	228904
#	267076
#	288968
#
# Disc length: 4227 seconds
#
# Revision: 0
# Processed by: cddbd v1.5.2PL0 Copyright (c) Steve Scherf et al.
# Submitted via: CDex 1.70beta2
#
DISCID=a110810c
DTITLE=Peter Glessing - Four One plus
DYEAR=1900
DGENRE=Jazz
TTITLE0=Down by the riverside
TTITLE1=Makin' whopee
TTITLE2=I got rhythm
TTITLE3=Blue and sentimental
TTITLE4=Sentimental journey
TTITLE5=Blues form Louisiana
TTITLE6=Watermelon man
TTITLE7=Bei mir bist du schön
TTITLE8=On the sunny side
TTITLE9=Caravan
TTITLE10=Blues in the closet
TTITLE11=Flying home
EXTD=
EXTT0=
EXTT1=
EXTT2=
EXTT3=
EXTT4=
EXTT5=
EXTT6=
EXTT7=
EXTT8=
EXTT9=
EXTT10=
EXTT11=
PLAYORDER=
